<svg xmlns="http://www.w3.org/2000/svg" width="48" height="42" viewBox="0 0 48 42" fill="none">
  <path d="M17.0045 37.1544C16.6907 36.9321 16.4083 36.7726 16.1023 36.668C15.7989 36.566 15.4851 36.5111 15.153 36.498C14.494 36.4692 13.7749 36.5869 13.0871 36.7464C12.3993 36.9086 11.7456 37.1047 11.2539 37.2616C10.7675 37.4159 10.4485 37.5362 10.4485 37.5362C10.4485 37.5362 10.7597 37.7088 11.2592 37.9101C11.7586 38.1141 12.4516 38.3442 13.2074 38.4698C13.9579 38.5953 14.7764 38.611 15.4904 38.4148C16.2017 38.2239 16.8058 37.8108 17.0045 37.1544Z" fill="#F7BE00"/>
  <path d="M14.9028 34.249C15.1696 34.8217 15.5592 35.3813 16.0718 35.7448C16.328 35.9253 16.6105 36.0612 16.9164 36.1188C17.2198 36.1763 17.5467 36.1606 17.8631 36.0351C17.8814 35.3499 17.6826 34.8086 17.3767 34.3327C17.0681 33.8619 16.6288 33.454 16.1764 33.101C15.7239 32.7505 15.2611 32.4577 14.9107 32.2484C14.5602 32.0419 14.3223 31.9189 14.3223 31.9189C14.3223 31.9189 14.3249 31.9922 14.338 32.1229C14.351 32.2484 14.3746 32.4341 14.4112 32.6538C14.4844 33.0879 14.6335 33.6763 14.9028 34.249Z" fill="#F7BE00"/>
  <path d="M9.94997 35.7768C10.6404 35.7454 11.2497 35.4917 11.6785 34.9452C11.336 34.362 10.8182 34.0482 10.1958 33.8651C9.5734 33.6847 8.84903 33.635 8.13511 33.6115C7.42381 33.5932 6.71773 33.6062 6.18687 33.6115C5.64293 33.6193 5.30298 33.6272 5.30298 33.6272C5.30298 33.6272 5.36836 33.6952 5.49126 33.8102C5.61417 33.9174 5.79199 34.0796 6.01689 34.2522C6.46407 34.6052 7.09953 35.0132 7.79776 35.3139C8.49599 35.6199 9.25959 35.8081 9.94997 35.7768Z" fill="#F7BE00"/>
  <path d="M11.259 33.1875C11.6487 33.6582 12.1978 33.9694 12.8751 33.938C13.1523 33.3078 13.1053 32.7063 12.917 32.1519C12.7287 31.6001 12.3992 31.0954 12.0618 30.6535C11.7271 30.2141 11.3819 29.8376 11.1309 29.5682C11.008 29.4322 10.9007 29.325 10.8275 29.2518C10.7569 29.1759 10.7125 29.1367 10.7125 29.1367C10.7125 29.1367 10.6889 29.2047 10.6549 29.325C10.6209 29.4479 10.5817 29.6205 10.5477 29.8349C10.4745 30.2664 10.4431 30.8522 10.5373 31.4694C10.6366 32.0839 10.8694 32.7142 11.259 33.1875Z" fill="#F7BE00"/>
  <path d="M2.82107 28.4857C2.33205 28.3392 2.01562 28.2529 2.01562 28.2529C2.01562 28.2529 2.04439 28.3314 2.10715 28.4595C2.17253 28.5877 2.2719 28.7681 2.39742 28.9825C2.52295 29.197 2.67724 29.4454 2.85506 29.7043C2.94398 29.8351 3.04073 29.9684 3.14011 30.0992L3.21856 30.2012L3.32055 30.3267C3.38854 30.4104 3.45915 30.4941 3.52714 30.5751C4.09984 31.2237 4.8033 31.7179 5.4963 31.9245C6.19191 32.1363 6.86398 32.0657 7.43668 31.6578C7.27716 31.0014 6.88752 30.5542 6.36712 30.1672C6.23898 30.0678 6.09515 29.9789 5.95394 29.8847C5.81011 29.7906 5.65843 29.7043 5.50152 29.6154C5.34724 29.5239 5.18772 29.4349 5.02559 29.346C4.8713 29.265 4.71962 29.1944 4.56533 29.1238C3.94556 28.8466 3.30747 28.6321 2.82107 28.4857Z" fill="#F7BE00"/>
  <path d="M7.60645 29.649C7.79212 30.2139 8.21838 30.6794 8.87215 30.8232C9.32456 30.2949 9.471 29.717 9.50761 29.1705C9.53899 28.6239 9.46577 28.1061 9.40301 27.6694C9.38209 27.4837 9.30364 27.1725 9.23303 26.932C9.15981 26.6809 9.07874 26.456 9.00551 26.2677C8.93229 26.0794 8.86169 25.9251 8.81462 25.8179C8.77278 25.7081 8.74662 25.6479 8.74662 25.6479C8.74662 25.6479 8.69955 25.7081 8.62633 25.8179C8.54788 25.9304 8.45373 26.0873 8.3439 26.286C8.12685 26.6783 7.86796 27.2275 7.68752 27.8394C7.64045 27.9911 7.60121 28.148 7.56722 28.3075C7.53584 28.4539 7.51492 28.603 7.49923 28.7573C7.48877 28.909 7.49662 29.0606 7.50969 29.2123C7.528 29.3587 7.56461 29.5052 7.60645 29.649Z" fill="#F7BE00"/>
  <path d="M2.07251 26.1842C2.18496 26.3149 2.31832 26.4326 2.45169 26.5398C2.58506 26.647 2.72366 26.7464 2.86488 26.8327C3.43497 27.1805 4.0652 27.3269 4.75297 27.136C4.8105 26.8092 4.78435 26.511 4.69543 26.2338C4.64836 26.0979 4.58821 25.9645 4.51238 25.8363C4.43654 25.7082 4.3424 25.5853 4.25349 25.4624C3.88476 24.9734 3.31467 24.5523 2.73935 24.1758C2.18234 23.794 1.59394 23.4697 1.14415 23.2317C0.683895 22.999 0.39624 22.8525 0.39624 22.8525C0.39624 22.8525 0.409316 22.9336 0.445927 23.0748C0.487769 23.216 0.550531 23.4148 0.634214 23.6528C0.804194 24.1287 1.04217 24.7668 1.43705 25.3473C1.62795 25.6402 1.83977 25.9279 2.07251 26.1842Z" fill="#F7BE00"/>
  <path d="M5.78925 25.9306C5.92262 26.1869 6.11875 26.4144 6.39333 26.5975C7.01572 26.2575 7.37399 25.7476 7.56227 25.1958C7.61196 25.0572 7.64596 24.916 7.67472 24.7722C7.69041 24.7016 7.70087 24.631 7.70872 24.5577C7.71918 24.4845 7.73226 24.4113 7.74272 24.3381C7.78194 24.0452 7.7924 23.7549 7.78194 23.4725C7.74271 22.9128 7.7061 22.3846 7.63288 22.0028C7.59888 21.8093 7.55966 21.6524 7.53612 21.5425C7.51782 21.4327 7.50474 21.3726 7.50474 21.3726C7.50474 21.3726 7.44721 21.4222 7.35045 21.5138C7.25108 21.6079 7.12817 21.7413 6.98173 21.9113C6.68884 22.2512 6.32535 22.7376 6.02984 23.3025C5.75003 23.8621 5.56959 24.495 5.5722 25.0938C5.56959 25.2455 5.59573 25.3893 5.63234 25.5279C5.66895 25.6691 5.72126 25.8025 5.78925 25.9306Z" fill="#F7BE00"/>
  <path d="M0.877726 20.797C0.964024 20.9487 1.05555 21.0951 1.16015 21.2285C1.26998 21.3619 1.38505 21.4874 1.50796 21.5972C1.9996 22.0497 2.5906 22.3112 3.3019 22.2458C3.42481 21.9346 3.45881 21.6391 3.42481 21.354C3.40651 21.2102 3.37513 21.069 3.32545 20.9304C3.28099 20.7918 3.2313 20.6506 3.1633 20.5146C3.03255 20.24 2.8495 19.9733 2.63768 19.7118C2.53046 19.5836 2.42062 19.4529 2.3134 19.3247C2.20357 19.1966 2.09112 19.0711 1.97345 18.9508C1.50796 18.4618 0.992789 18.012 0.631908 17.6772C0.263181 17.3451 0.00167208 17.1333 0.00167208 17.1333C0.00167208 17.1333 -0.00878378 17.4706 0.0225972 17.9806C0.0409028 18.2343 0.095814 18.5324 0.155961 18.8488C0.187342 19.0083 0.223957 19.1705 0.265798 19.3352C0.307639 19.5 0.352092 19.6699 0.417469 19.8347C0.550838 20.1668 0.6999 20.4937 0.877726 20.797Z" fill="#F7BE00"/>
  <path d="M5.00139 21.885C5.68131 21.6627 6.13372 21.2312 6.43446 20.7396C6.5103 20.614 6.57306 20.4885 6.63059 20.3578C6.69597 20.227 6.7535 20.0936 6.80319 19.9577C6.90256 19.6883 6.97317 19.4137 7.02285 19.147C7.07515 18.8802 7.13269 18.6214 7.16145 18.3834C7.17714 18.2631 7.1876 18.148 7.19545 18.0382C7.20329 17.931 7.20591 17.829 7.2216 17.7348C7.26344 17.3635 7.25821 17.1177 7.25821 17.1177C7.25821 17.1177 6.99409 17.2563 6.61752 17.5126C6.52338 17.5779 6.424 17.6485 6.31678 17.7296C6.20956 17.8107 6.09973 17.897 5.99774 17.9911C5.78853 18.1794 5.57149 18.3964 5.36751 18.637C5.26552 18.7573 5.16615 18.8829 5.072 19.0136C5.02493 19.079 4.98047 19.1444 4.93601 19.2124C4.89679 19.2804 4.86018 19.3483 4.82357 19.4163C4.68235 19.6909 4.57252 19.9812 4.51499 20.2741C4.48622 20.4179 4.4653 20.5644 4.47053 20.7056C4.47838 20.8468 4.50192 20.9906 4.54114 21.1266C4.62483 21.3986 4.77126 21.6575 5.00139 21.885Z" fill="#F7BE00"/>
  <path d="M2.53035 13.702C2.37083 13.4117 2.19824 13.1267 2.03349 12.8626C1.86089 12.5958 1.7066 12.3552 1.57585 12.1513C1.30911 11.7407 1.11297 11.4766 1.11297 11.4766C1.11297 11.4766 1.01099 11.7982 0.906389 12.2977C0.867163 12.5514 0.827933 12.8495 0.804397 13.1711C0.791321 13.3333 0.780865 13.498 0.775635 13.668C0.775635 13.8406 0.788706 14.0158 0.804397 14.191C0.835778 14.5441 0.88285 14.8971 0.976993 15.2318C1.0816 15.5692 1.21758 15.8856 1.39279 16.1602C1.73014 16.7146 2.27668 17.099 2.98276 17.1957C3.07428 17.0598 3.14489 16.9212 3.19719 16.7826C3.24688 16.644 3.29657 16.5027 3.31749 16.3615C3.36717 16.0765 3.34364 15.7862 3.27303 15.4907C3.21027 15.1952 3.11613 14.8971 2.98276 14.5964C2.84939 14.2956 2.68203 13.9923 2.53035 13.702Z" fill="#F7BE00"/>
  <path d="M6.37468 16.2864C6.58912 16.0877 6.76956 15.8628 6.92124 15.6301C7.0886 15.3973 7.23766 15.1593 7.35534 14.9188C7.4181 14.7985 7.46517 14.6808 7.5227 14.5657C7.58024 14.4507 7.63515 14.3382 7.68222 14.2284C7.77898 14.0113 7.84698 13.8073 7.90974 13.6321C8.05095 13.2869 8.1111 13.0542 8.1111 13.0542C8.1111 13.0542 7.81821 13.1222 7.38672 13.2765C6.94216 13.4282 6.40868 13.6844 5.88043 14.0427C5.74968 14.1316 5.61369 14.2284 5.49602 14.333C5.37834 14.435 5.26589 14.5448 5.15867 14.6599C4.94685 14.89 4.75595 15.141 4.62781 15.4052C4.51013 15.6719 4.44214 15.9517 4.44214 16.2315C4.44475 16.3701 4.45522 16.5113 4.50229 16.6499C4.54936 16.7885 4.61735 16.9271 4.70626 17.0605C5.4228 16.9951 5.93535 16.6839 6.37468 16.2864Z" fill="#F7BE00"/>
  <path d="M4.2909 11.9139C4.38504 11.7963 4.46088 11.6707 4.52102 11.54C4.58117 11.4092 4.62301 11.2732 4.6544 11.1294C4.68316 10.9882 4.69624 10.8418 4.71193 10.6953C4.73546 10.3998 4.71192 10.0834 4.65962 9.76173C4.60732 9.44007 4.54979 9.12103 4.46349 8.79676C4.2909 8.15345 4.10261 7.54675 3.93525 7.0865C3.76788 6.62363 3.65282 6.32812 3.65282 6.32812C3.65282 6.32812 3.60575 6.39612 3.53252 6.52426C3.46192 6.6524 3.36516 6.84068 3.25794 7.06819C3.03043 7.5206 2.80292 8.16653 2.65909 8.84383C2.60156 9.18902 2.56233 9.54206 2.56233 9.88464C2.5571 10.0546 2.57802 10.2272 2.60417 10.3946C2.63032 10.5619 2.66693 10.7215 2.714 10.8758C2.81337 11.1843 2.94674 11.4615 3.1638 11.6969C3.37562 11.9322 3.64235 12.1231 3.97185 12.2539C4.09999 12.1493 4.2046 12.0342 4.2909 11.9139Z" fill="#F7BE00"/>
  <path d="M9.92076 9.46121C9.98091 9.36968 10.0149 9.31738 10.0149 9.31738C10.0149 9.31738 9.93907 9.31738 9.80309 9.32261C9.6671 9.32784 9.47881 9.34092 9.25392 9.36707C9.0264 9.39322 8.76228 9.43506 8.47462 9.49782C8.33341 9.52921 8.18173 9.5632 8.03529 9.60766C7.88884 9.65211 7.7424 9.7018 7.59334 9.75933C7.29783 9.87178 6.99188 10.0078 6.72514 10.1777C6.46363 10.3477 6.22043 10.5465 6.02168 10.7688C5.91969 10.8786 5.84385 11.0015 5.77586 11.1244C5.71048 11.2499 5.65818 11.3807 5.62157 11.5141C5.58496 11.65 5.56665 11.7886 5.56665 11.9298C5.5745 12.0763 5.60327 12.2227 5.65295 12.3744C6.00599 12.4293 6.33287 12.4163 6.63099 12.3509C6.92649 12.2881 7.21938 12.1809 7.47305 12.0397C7.60119 11.9717 7.7241 11.8932 7.84177 11.8069C7.89931 11.7677 7.95684 11.7233 8.01175 11.6762C8.06928 11.6343 8.12682 11.5873 8.18173 11.5428C8.40663 11.3598 8.60276 11.1584 8.78059 10.957C8.97149 10.7583 9.14147 10.5569 9.28269 10.3634C9.3193 10.3163 9.35329 10.2667 9.38729 10.2222C9.4239 10.1751 9.45789 10.1333 9.49189 10.0888C9.55727 9.99992 9.62003 9.91885 9.67233 9.8404C9.78216 9.68872 9.86323 9.55535 9.92076 9.46121Z" fill="#F7BE00"/>
  <path d="M6.22601 7.75299C6.53197 7.60655 6.75948 7.41042 6.93469 7.18291C7.11775 6.96062 7.24589 6.69912 7.32957 6.41407C7.51524 5.84922 7.544 5.17714 7.53877 4.52599C7.53616 4.36385 7.5257 4.1991 7.51786 4.03958C7.51263 3.88268 7.50216 3.72838 7.48909 3.57671C7.46555 3.27597 7.43417 2.99616 7.4054 2.75557C7.3531 2.28224 7.29818 1.96582 7.29818 1.96582C7.29818 1.96582 7.24066 2.02858 7.14128 2.13319C7.04191 2.2404 6.90331 2.39469 6.75163 2.59344C6.59996 2.79219 6.41952 3.02493 6.25477 3.29428C6.09002 3.56364 5.91742 3.85652 5.77882 4.17033C5.64284 4.48676 5.51732 4.81364 5.44148 5.14576C5.36826 5.48049 5.33164 5.8126 5.34733 6.12903C5.38918 6.77234 5.6533 7.34504 6.22601 7.75299Z" fill="#F7BE00"/>
  <path d="M11.2127 7.41058C11.4428 7.25106 11.6599 7.08893 11.8482 6.92941C12.0391 6.76989 12.2143 6.62345 12.3555 6.49008C12.4941 6.35409 12.6144 6.24687 12.6929 6.16842C12.7713 6.08997 12.8158 6.0429 12.8158 6.0429C12.8158 6.0429 12.5176 5.98013 12.0548 5.93568C11.8246 5.91476 11.5579 5.9043 11.265 5.9043C10.9721 5.9043 10.6531 5.92522 10.3393 5.97229C9.7012 6.0612 9.0579 6.26779 8.56888 6.6156C8.3309 6.79342 8.12954 7.00263 7.98833 7.24583C7.85496 7.49427 7.78958 7.77669 7.80527 8.08789C8.46688 8.36247 9.08928 8.33894 9.65675 8.18203C9.94702 8.10358 10.219 7.99113 10.4753 7.85515C10.7394 7.72439 10.9878 7.57272 11.2127 7.41058Z" fill="#F7BE00"/>
  <path d="M9.94202 33.0881C11.8196 34.5682 14.1078 35.5829 16.3568 36.4458C18.1952 37.1519 20.554 38.3078 22.9573 39.3826C20.7972 40.0233 18.6659 40.5463 16.9531 40.8183C16.7308 40.8549 17.8814 41.9689 18.0985 41.9087C20.0885 41.3386 22.1074 40.6483 24.0948 39.8847C26.268 40.8235 28.415 41.6289 30.1828 41.9114C30.405 41.9454 31.0954 40.8209 30.8731 40.7843C29.1969 40.5175 27.2539 40.0442 25.2272 39.4401C28.564 38.1064 31.7727 36.5975 34.5525 35.1592C37.5677 33.5954 39.8298 31.3804 41.3178 28.4306C42.6959 25.7005 43.6687 22.6827 43.8099 19.6492C44.0087 15.4493 42.5259 11.328 40.2273 7.78716C39.5526 6.74897 38.8021 5.71601 37.9678 4.75628C38.0411 4.48692 38.0489 4.23065 38.0018 3.98483C37.9469 3.69717 37.8266 3.41736 37.6462 3.16892C37.2958 2.65898 36.7283 2.25103 36.1504 1.94507C35.5646 1.64172 34.9605 1.45082 34.5055 1.34621C34.278 1.29391 34.0897 1.26253 33.9589 1.24422C33.8936 1.23899 33.8412 1.23115 33.8073 1.22853C33.7759 1.22853 33.7576 1.22853 33.7576 1.22853C33.7576 1.22853 33.7654 1.24161 33.7785 1.27037C33.7942 1.29914 33.8151 1.3436 33.8439 1.39851C33.904 1.50835 33.9903 1.66787 34.0975 1.85615C34.312 2.23534 34.6075 2.73482 34.9553 3.22123C35.1279 3.46966 35.3214 3.7024 35.5227 3.92468C35.6247 4.03452 35.7319 4.13912 35.8444 4.23326C35.9542 4.33263 36.0693 4.42155 36.1896 4.50261C36.4354 4.65952 36.6917 4.79027 36.9793 4.86088C37.199 4.91318 37.4265 4.9341 37.6749 4.92103C39.278 6.72544 40.5882 8.82012 41.5871 10.9226C42.858 13.6005 43.538 16.5189 43.4647 19.4609C43.3863 22.667 42.2618 25.9201 40.7503 28.768C39.5735 30.9855 37.8633 32.7926 35.6744 34.1367C33.7157 35.3423 31.5661 36.2471 29.4322 37.1258C27.8318 37.7848 25.9332 38.4621 24.0085 39.0635C19.8846 37.7508 15.5749 35.9804 12.5885 34.3747C11.0273 33.5379 9.61251 32.5101 8.44357 31.2104C7.27463 29.9134 6.43258 28.3757 5.75789 26.8014C4.47388 23.8202 3.66321 20.7318 3.86195 17.4917C4.0947 13.7129 5.65329 10.0989 7.82642 6.96602C8.38343 6.16319 8.98751 5.36298 9.64651 4.60722C9.88449 4.61768 10.1068 4.59676 10.3186 4.54707C10.6062 4.47647 10.8625 4.34833 11.1083 4.19142C11.2286 4.11035 11.3437 4.01883 11.4535 3.92207C11.566 3.82531 11.6732 3.72071 11.7752 3.61087C11.9766 3.38859 12.1727 3.15585 12.3427 2.90742C12.6879 2.42101 12.9834 1.91892 13.1978 1.53973C13.305 1.35144 13.3913 1.19192 13.4488 1.08209C13.4776 1.02717 13.5011 0.985331 13.5168 0.95395C13.5299 0.927799 13.5351 0.912109 13.5351 0.912109C13.5351 0.912109 13.5194 0.912109 13.4855 0.912109C13.4515 0.914724 13.4018 0.922569 13.3364 0.927799C13.2056 0.94349 13.0147 0.97487 12.7898 1.02717C12.3374 1.13177 11.7307 1.32268 11.1476 1.62341C10.567 1.92938 10.0022 2.33994 9.65174 2.84988C9.4713 3.09832 9.35101 3.37552 9.29609 3.66579C9.24902 3.90638 9.25687 4.16004 9.32747 4.42155C7.79503 6.15535 6.52672 8.15327 5.54345 10.1538C4.32744 12.6277 3.59522 15.3029 3.48538 18.033C3.35986 21.1711 4.25421 24.1785 5.49376 27.0551C6.48488 29.3747 7.90749 31.4824 9.94202 33.0881Z" fill="#F7BE00"/>
  <path d="M34.0835 38.7892C34.8392 38.6663 35.5296 38.4362 36.0317 38.2322C36.5312 38.0282 36.8424 37.8582 36.8424 37.8582C36.8424 37.8582 36.5233 37.7379 36.0369 37.5837C35.5479 37.4268 34.8941 37.228 34.2038 37.0685C33.5134 36.9116 32.7969 36.7939 32.1379 36.8201C31.8057 36.8331 31.4919 36.888 31.1886 36.99C30.8826 37.0946 30.5976 37.2542 30.2864 37.4764C30.4877 38.1302 31.0918 38.546 31.8005 38.7369C32.5144 38.9304 33.333 38.9147 34.0835 38.7892Z" fill="#F7BE00"/>
  <path d="M30.3811 36.4358C30.6871 36.3809 30.9695 36.2449 31.2258 36.0645C31.7357 35.6984 32.1254 35.1388 32.3921 34.5687C32.6615 33.996 32.8079 33.4076 32.8864 32.9682C32.9256 32.7486 32.9465 32.5655 32.9596 32.4374C32.9701 32.3092 32.9753 32.2334 32.9753 32.2334C32.9753 32.2334 32.7347 32.3537 32.3869 32.5629C32.0365 32.7721 31.5736 33.065 31.1212 33.4154C30.6688 33.7658 30.2295 34.1738 29.9183 34.6471C29.6097 35.1231 29.4135 35.6644 29.4318 36.3495C29.7483 36.4803 30.0752 36.4934 30.3811 36.4358Z" fill="#F7BE00"/>
  <path d="M39.1604 33.9329C38.4465 33.9538 37.7221 34.0035 37.1024 34.184C36.48 34.367 35.9596 34.6834 35.6196 35.264C36.0459 35.8132 36.6578 36.0668 37.3482 36.0956C38.036 36.127 38.7996 35.9361 39.4978 35.6353C40.196 35.3346 40.8315 34.924 41.2787 34.571C41.5036 34.3984 41.6814 34.2389 41.8069 34.1291C41.9298 34.014 41.9952 33.946 41.9952 33.946C41.9952 33.946 41.6526 33.9408 41.1087 33.9303C40.5778 33.9277 39.8717 33.9146 39.1604 33.9329Z" fill="#F7BE00"/>
  <path d="M34.4164 34.2542C35.0937 34.2882 35.6429 33.977 36.0326 33.5037C36.4222 33.0304 36.6549 32.4028 36.7491 31.7882C36.8458 31.1711 36.8118 30.5827 36.7386 30.1538C36.7046 29.9394 36.6654 29.7668 36.6314 29.6439C36.5974 29.5236 36.5765 29.4556 36.5765 29.4556C36.5765 29.4556 36.5346 29.4948 36.4614 29.5706C36.3856 29.6439 36.281 29.7537 36.1581 29.8871C35.907 30.159 35.5645 30.533 35.2271 30.9723C34.8924 31.4143 34.5603 31.919 34.3746 32.4708C34.1889 33.0252 34.1392 33.6266 34.4164 34.2542Z" fill="#F7BE00"/>
  <path d="M43.7626 30.894C43.8332 30.8129 43.9038 30.7292 43.9718 30.6455L44.0712 30.52L44.1496 30.418C44.2516 30.2847 44.3457 30.1513 44.4347 30.0231C44.6125 29.7643 44.7668 29.5158 44.8949 29.3014C45.0204 29.087 45.1172 28.9065 45.1826 28.7784C45.2453 28.6502 45.2767 28.5718 45.2767 28.5718C45.2767 28.5718 44.9603 28.6607 44.4713 28.8045C43.9875 28.951 43.3468 29.168 42.727 29.4452C42.5701 29.5158 42.4184 29.5864 42.2641 29.6675C42.102 29.7564 41.9399 29.8453 41.7882 29.9342C41.6339 30.0231 41.4796 30.1121 41.3358 30.2062C41.1919 30.2977 41.0481 30.3893 40.9226 30.4886C40.3996 30.8757 40.0125 31.3228 39.853 31.9792C40.4257 32.3898 41.1004 32.4578 41.7934 32.246C42.4864 32.0368 43.1925 31.5399 43.7626 30.894Z" fill="#F7BE00"/>
  <path d="M39.607 28.1532C39.4265 27.5439 39.165 26.9947 38.9506 26.6024C38.8408 26.4037 38.7466 26.2494 38.6682 26.137C38.5949 26.0271 38.5479 25.9644 38.5479 25.9644C38.5479 25.9644 38.5217 26.0245 38.4799 26.1343C38.4328 26.2416 38.3622 26.3958 38.289 26.5867C38.2158 26.7776 38.1347 27.0025 38.0615 27.251C37.9908 27.4942 37.9124 27.8028 37.8915 27.9884C37.8313 28.4225 37.7555 28.9403 37.7869 29.4895C37.8235 30.036 37.9699 30.614 38.4223 31.1422C39.0761 30.9984 39.5024 30.5329 39.688 29.968C39.7299 29.8268 39.7691 29.6804 39.7848 29.5287C39.7979 29.377 39.8057 29.2254 39.7953 29.0711C39.7822 28.9194 39.7587 28.7677 39.7273 28.6213C39.6907 28.4618 39.6514 28.3049 39.607 28.1532Z" fill="#F7BE00"/>
  <path d="M46.8461 23.3943C46.8827 23.2531 46.8958 23.1694 46.8958 23.1694C46.8958 23.1694 46.6081 23.3159 46.1479 23.5512C45.6981 23.7866 45.1123 24.1135 44.5526 24.4953C43.9773 24.8692 43.4072 25.2955 43.0385 25.7819C42.9496 25.9048 42.8555 26.0277 42.7796 26.1559C42.7038 26.284 42.641 26.4174 42.5966 26.556C42.505 26.8332 42.4815 27.1313 42.539 27.4582C43.2242 27.6465 43.857 27.5 44.4271 27.1548C44.571 27.0685 44.7069 26.9691 44.8403 26.8619C44.9737 26.7521 45.1071 26.637 45.2195 26.5063C45.4522 26.2474 45.6641 25.9597 45.855 25.6668C46.2498 25.0837 46.4878 24.4482 46.6578 23.9723C46.7441 23.7317 46.8069 23.5329 46.8461 23.3943Z" fill="#F7BE00"/>
  <path d="M40.8989 26.9163C41.1735 26.7333 41.3697 26.5058 41.503 26.2469C41.571 26.1214 41.6207 25.9828 41.6573 25.8442C41.6939 25.7029 41.7201 25.5591 41.7201 25.4101C41.7227 24.8112 41.5423 24.1783 41.2624 23.6187C40.9669 23.0539 40.6008 22.5675 40.3105 22.2301C40.1641 22.0601 40.0412 21.9241 39.9418 21.8326C39.8451 21.7411 39.7875 21.6914 39.7875 21.6914C39.7875 21.6914 39.7718 21.7542 39.7535 21.864C39.73 21.9738 39.6908 22.1307 39.6568 22.3216C39.5836 22.7061 39.5443 23.2317 39.5077 23.7913C39.4973 24.0711 39.5077 24.364 39.5469 24.6569C39.56 24.7301 39.5705 24.8034 39.5809 24.8766C39.5914 24.9498 39.6018 25.0204 39.6149 25.091C39.6437 25.2348 39.6803 25.3761 39.7274 25.5147C39.9209 26.0664 40.2765 26.5738 40.8989 26.9163Z" fill="#F7BE00"/>
  <path d="M45.3154 19.267C45.2003 19.3873 45.0852 19.5155 44.9754 19.641C44.8682 19.7691 44.761 19.8973 44.6511 20.028C44.4393 20.2895 44.2589 20.5563 44.1255 20.8308C44.0575 20.9668 44.0078 21.108 43.9634 21.2466C43.9137 21.3878 43.8823 21.5264 43.864 21.6703C43.83 21.9579 43.864 22.2534 43.9869 22.5646C44.7008 22.6274 45.2918 22.3685 45.7835 21.9161C45.9064 21.8063 46.0215 21.6807 46.1313 21.5474C46.2359 21.4114 46.3274 21.2676 46.4163 21.1159C46.5915 20.8125 46.7406 20.4856 46.8661 20.1535C46.9341 19.9888 46.9759 19.8214 47.0178 19.6541C47.0596 19.4893 47.0963 19.3246 47.1276 19.1676C47.1878 18.8512 47.2427 18.5557 47.261 18.2994C47.2924 17.7895 47.2819 17.4521 47.2819 17.4521C47.2819 17.4521 47.0204 17.6614 46.6517 17.9935C46.2987 18.3308 45.7809 18.778 45.3154 19.267Z" fill="#F7BE00"/>
  <path d="M42.7473 21.4435C42.7865 21.3075 42.8101 21.1663 42.8179 21.0251C42.8205 20.8812 42.7996 20.7348 42.7735 20.5884C42.7133 20.2981 42.6061 20.0104 42.4649 19.7332C42.4309 19.6652 42.3917 19.5972 42.3524 19.5292C42.3106 19.4613 42.2635 19.3959 42.2164 19.3305C42.1223 19.1998 42.0229 19.0742 41.9209 18.9513C41.7143 18.7133 41.4973 18.4963 41.2881 18.308C41.1861 18.2139 41.0763 18.1276 40.9691 18.0465C40.8618 17.968 40.7625 17.8948 40.6683 17.8294C40.2917 17.5706 40.0276 17.4346 40.0276 17.4346C40.0276 17.4346 40.025 17.6778 40.0669 18.0517C40.0799 18.1459 40.0852 18.2479 40.093 18.3551C40.1008 18.4623 40.1139 18.5774 40.127 18.6977C40.1531 18.9356 40.2133 19.1945 40.2656 19.4613C40.3127 19.728 40.3833 20.0026 40.4853 20.2719C40.5349 20.4079 40.5925 20.5413 40.6605 20.672C40.718 20.8028 40.7808 20.9309 40.8566 21.0538C41.1547 21.5455 41.6071 21.9744 42.2871 22.1992C42.5198 21.977 42.6689 21.7181 42.7473 21.4435Z" fill="#F7BE00"/>
  <path d="M44.0234 15.8076C43.9502 16.1031 43.9292 16.3908 43.9763 16.6758C43.9972 16.817 44.0469 16.9556 44.0966 17.0968C44.1463 17.2354 44.2169 17.374 44.311 17.51C45.0171 17.4159 45.5637 17.0288 45.901 16.4771C46.0736 16.1999 46.2122 15.8834 46.3168 15.5487C46.4109 15.2114 46.458 14.8583 46.492 14.5079C46.5051 14.3327 46.5182 14.1549 46.5182 13.9849C46.5129 13.8149 46.5025 13.6475 46.492 13.488C46.4659 13.1664 46.4292 12.8683 46.39 12.6146C46.2828 12.1151 46.1834 11.7935 46.1834 11.7935C46.1834 11.7935 45.9873 12.0602 45.7206 12.4708C45.5898 12.6721 45.4355 12.9127 45.2629 13.1794C45.0956 13.4436 44.9256 13.7286 44.7661 14.0215C44.6144 14.3118 44.447 14.6151 44.3163 14.9132C44.1777 15.214 44.0835 15.5147 44.0234 15.8076Z" fill="#F7BE00"/>
  <path d="M42.667 15.7211C42.5388 15.4543 42.3479 15.2059 42.1361 14.9758C42.0315 14.8607 41.9164 14.7509 41.7987 14.6489C41.6811 14.5443 41.5451 14.4501 41.4169 14.3612C40.8861 14.003 40.3526 13.7441 39.9106 13.5924C39.4792 13.4381 39.1863 13.3701 39.1863 13.3701C39.1863 13.3701 39.2464 13.6029 39.3876 13.948C39.4504 14.1206 39.5184 14.3272 39.6151 14.5469C39.6622 14.6567 39.7145 14.7692 39.7721 14.8842C39.8296 14.9993 39.8767 15.1196 39.9394 15.2373C40.0571 15.4753 40.2062 15.7158 40.3735 15.9486C40.5252 16.1813 40.7056 16.4062 40.9201 16.605C41.3594 16.9999 41.8746 17.3137 42.5911 17.379C42.68 17.2457 42.748 17.1071 42.7951 16.9685C42.8422 16.8273 42.8526 16.6887 42.8552 16.5474C42.8526 16.2676 42.7846 15.9878 42.667 15.7211Z" fill="#F7BE00"/>
  <path d="M43.6415 6.64941C43.6415 6.64941 43.5238 6.94492 43.3564 7.40779C43.1891 7.87066 43.0034 8.47474 42.8282 9.11805C42.7445 9.43971 42.6844 9.76136 42.6347 10.0804C42.5824 10.4021 42.5588 10.7185 42.5824 11.014C42.5981 11.1604 42.6085 11.3095 42.6399 11.4481C42.6687 11.5893 42.7131 11.7279 42.7733 11.8587C42.8334 11.9868 42.9093 12.1123 43.0034 12.2326C43.0897 12.3529 43.1943 12.468 43.3198 12.5778C43.6493 12.4444 43.9187 12.2561 44.1305 12.0208C44.3449 11.7828 44.4783 11.5082 44.5803 11.1997C44.63 11.0454 44.664 10.8832 44.6927 10.7185C44.7189 10.5511 44.7372 10.3785 44.7346 10.2085C44.7346 9.86596 44.6954 9.51293 44.6378 9.16774C44.494 8.48782 44.2665 7.84189 44.0416 7.3921C43.9344 7.16459 43.8376 6.9763 43.767 6.84816C43.6885 6.71741 43.6415 6.64941 43.6415 6.64941Z" fill="#F7BE00"/>
  <path d="M41.5159 11.4431C41.4479 11.3176 41.3721 11.1946 41.2675 11.0874C41.0687 10.8651 40.8281 10.6664 40.564 10.4964C40.2973 10.3264 39.9939 10.1905 39.6984 10.078C39.5494 10.0205 39.4003 9.97079 39.2565 9.92895C39.11 9.88449 38.9584 9.85049 38.8171 9.81911C38.5295 9.75635 38.2654 9.71712 38.0379 9.68836C37.8103 9.66221 37.6247 9.64652 37.4887 9.6439C37.3527 9.63867 37.2769 9.63867 37.2769 9.63867C37.2769 9.63867 37.3082 9.69097 37.371 9.7825C37.4312 9.87403 37.5096 10.0074 37.6168 10.1617C37.6717 10.2401 37.7319 10.3212 37.7973 10.4101C37.8313 10.452 37.8653 10.499 37.9019 10.5435C37.9359 10.5906 37.9699 10.6376 38.0065 10.6847C38.1503 10.8782 38.3203 11.0796 38.5086 11.2783C38.6838 11.4797 38.8851 11.6811 39.1074 11.8615C39.1623 11.9086 39.2225 11.9504 39.28 11.9975C39.3349 12.0419 39.3899 12.0838 39.45 12.1282C39.5651 12.2119 39.688 12.2904 39.8161 12.3584C40.0724 12.4996 40.3627 12.6068 40.6608 12.6696C40.9589 12.7323 41.2858 12.748 41.6388 12.6905C41.6885 12.5414 41.7173 12.3924 41.7251 12.2485C41.7251 12.1073 41.7068 11.9661 41.6702 11.8327C41.6362 11.6967 41.5813 11.566 41.5159 11.4431Z" fill="#F7BE00"/>
  <path d="M41.0683 8.07216C41.6384 7.6642 41.9025 7.0915 41.947 6.45081C41.9627 6.13438 41.9261 5.80227 41.8528 5.46754C41.7744 5.13542 41.6515 4.81115 41.5155 4.49211C41.3769 4.17568 41.2017 3.88541 41.0395 3.61606C40.8748 3.3467 40.6944 3.11658 40.5427 2.91522C40.391 2.71385 40.2524 2.55957 40.153 2.45235C40.0537 2.34774 39.9987 2.2876 39.9987 2.2876C39.9987 2.2876 39.9438 2.60402 39.8915 3.07474C39.8628 3.31532 39.8314 3.59514 39.8079 3.89587C39.7948 4.04493 39.7869 4.19922 39.7791 4.35874C39.7712 4.51826 39.7608 4.68301 39.7582 4.84515C39.7503 5.4963 39.7817 6.16838 39.9647 6.73324C40.051 7.0209 40.1766 7.27979 40.3622 7.50207C40.5348 7.7322 40.7623 7.9231 41.0683 8.07216Z" fill="#F7BE00"/>
  <path d="M38.7235 6.93738C38.2344 6.58957 37.5911 6.38559 36.953 6.29407C36.6392 6.24438 36.3228 6.22869 36.0273 6.22607C35.7344 6.22607 35.4677 6.23653 35.2375 6.25745C34.7747 6.30191 34.4766 6.36206 34.4766 6.36206C34.4766 6.36206 34.5184 6.40913 34.5995 6.48758C34.6779 6.56603 34.7982 6.67325 34.9368 6.80924C35.0754 6.94261 35.2532 7.08905 35.4441 7.24857C35.6324 7.40809 35.8495 7.57023 36.0796 7.72975C36.3045 7.89188 36.5529 8.04356 36.8171 8.17431C37.0707 8.31029 37.3453 8.42536 37.633 8.50119C38.2031 8.6581 38.8254 8.68425 39.4871 8.40705C39.5027 8.09586 39.4347 7.81343 39.304 7.56499C39.1628 7.32441 38.9614 7.11259 38.7235 6.93738Z" fill="#F7BE00"/>
</svg>